<svg width="38" height="38" viewBox="0 0 38 38" fill="none" xmlns="http://www.w3.org/2000/svg">
<path d="M3.125 4.6875V3.125C2.7106 3.125 2.31317 3.28962 2.02015 3.58265C1.72712 3.87567 1.5625 4.2731 1.5625 4.6875H3.125ZM20.3125 4.6875H21.875C21.875 4.2731 21.7104 3.87567 21.4174 3.58265C21.1243 3.28962 20.7269 3.125 20.3125 3.125V4.6875ZM20.3125 14.0625V12.5C19.8981 12.5 19.5007 12.6646 19.2076 12.9576C18.9146 13.2507 18.75 13.6481 18.75 14.0625H20.3125ZM3.125 6.25H20.3125V3.125H3.125V6.25ZM18.75 4.6875V29.6875H21.875V4.6875H18.75ZM4.6875 26.5625V4.6875H1.5625V26.5625H4.6875ZM20.3125 15.625H28.125V12.5H20.3125V15.625ZM32.8125 20.3125V26.5625H35.9375V20.3125H32.8125ZM21.875 29.6875V14.0625H18.75V29.6875H21.875ZM29.2297 30.7922C28.9367 31.0851 28.5393 31.2497 28.125 31.2497C27.7107 31.2497 27.3133 31.0851 27.0203 30.7922L24.8109 33.0016C25.69 33.8803 26.882 34.374 28.125 34.374C29.368 34.374 30.56 33.8803 31.4391 33.0016L29.2297 30.7922ZM27.0203 28.5828C27.3133 28.2899 27.7107 28.1253 28.125 28.1253C28.5393 28.1253 28.9367 28.2899 29.2297 28.5828L31.4391 26.3734C30.56 25.4947 29.368 25.001 28.125 25.001C26.882 25.001 25.69 25.4947 24.8109 26.3734L27.0203 28.5828ZM10.4797 30.7922C10.1867 31.0851 9.78932 31.2497 9.375 31.2497C8.96068 31.2497 8.56332 31.0851 8.27031 30.7922L6.06094 33.0016C6.93997 33.8803 8.13204 34.374 9.375 34.374C10.618 34.374 11.81 33.8803 12.6891 33.0016L10.4797 30.7922ZM8.27031 28.5828C8.56332 28.2899 8.96068 28.1253 9.375 28.1253C9.78932 28.1253 10.1867 28.2899 10.4797 28.5828L12.6891 26.3734C11.81 25.4947 10.618 25.001 9.375 25.001C8.13204 25.001 6.93997 25.4947 6.06094 26.3734L8.27031 28.5828ZM29.2297 28.5828C29.5359 28.8875 29.6875 29.2859 29.6875 29.6875H32.8125C32.8125 28.4906 32.3547 27.2875 31.4391 26.3734L29.2297 28.5828ZM29.6875 29.6875C29.688 29.8927 29.6478 30.0961 29.5692 30.2857C29.4906 30.4753 29.3752 30.6474 29.2297 30.7922L31.4391 33.0016C31.8748 32.5667 32.2204 32.0501 32.4561 31.4814C32.6918 30.9127 32.8129 30.3031 32.8125 29.6875H29.6875ZM25 28.125H20.3125V31.25H25V28.125ZM27.0203 30.7922C26.8748 30.6474 26.7594 30.4753 26.6808 30.2857C26.6022 30.0961 26.562 29.8927 26.5625 29.6875H23.4375C23.4375 30.8844 23.8953 32.0875 24.8109 33.0016L27.0203 30.7922ZM26.5625 29.6875C26.5617 29.4822 26.6017 29.2788 26.6803 29.0891C26.7589 28.8995 26.8745 28.7274 27.0203 28.5828L24.8109 26.3734C24.3752 26.8083 24.0296 27.3249 23.7939 27.8936C23.5582 28.4623 23.4371 29.0719 23.4375 29.6875H26.5625ZM8.27031 30.7922C8.12479 30.6474 8.00941 30.4753 7.93083 30.2857C7.85225 30.0961 7.81203 29.8927 7.8125 29.6875H4.6875C4.6875 30.8844 5.14531 32.0875 6.06094 33.0016L8.27031 30.7922ZM7.8125 29.6875C7.81168 29.4822 7.85174 29.2788 7.93034 29.0891C8.00894 28.8995 8.12451 28.7274 8.27031 28.5828L6.06094 26.3734C5.62522 26.8083 5.27961 27.3249 5.04393 27.8936C4.80824 28.4623 4.68712 29.0719 4.6875 29.6875H7.8125ZM20.3125 28.125H12.5V31.25H20.3125V28.125ZM10.4797 28.5828C10.7859 28.8875 10.9375 29.2859 10.9375 29.6875H14.0625C14.0625 28.4906 13.6047 27.2875 12.6891 26.3734L10.4797 28.5828ZM10.9375 29.6875C10.938 29.8927 10.8978 30.0961 10.8192 30.2857C10.7406 30.4753 10.6252 30.6474 10.4797 30.7922L12.6891 33.0016C13.1248 32.5667 13.4704 32.0501 13.7061 31.4814C13.9418 30.9127 14.0629 30.3031 14.0625 29.6875H10.9375ZM32.8125 26.5625C32.8125 26.9769 32.6479 27.3743 32.3549 27.6674C32.0618 27.9604 31.6644 28.125 31.25 28.125V31.25C32.4932 31.25 33.6855 30.7561 34.5646 29.8771C35.4436 28.998 35.9375 27.8057 35.9375 26.5625H32.8125ZM28.125 15.625C29.3682 15.625 30.5605 16.1189 31.4396 16.9979C32.3186 17.877 32.8125 19.0693 32.8125 20.3125H35.9375C35.9375 19.2865 35.7354 18.2706 35.3428 17.3228C34.9502 16.3749 34.3747 15.5137 33.6493 14.7882C32.9238 14.0628 32.0626 13.4873 31.1147 13.0947C30.1669 12.7021 29.151 12.5 28.125 12.5V15.625ZM1.5625 26.5625C1.5625 27.8057 2.05636 28.998 2.93544 29.8771C3.81451 30.7561 5.0068 31.25 6.25 31.25V28.125C5.8356 28.125 5.43817 27.9604 5.14515 27.6674C4.85212 27.3743 4.6875 26.9769 4.6875 26.5625H1.5625Z" fill="#A8FFF5"/>
</svg>
