<svg width="34" height="34" viewBox="0 0 34 34" fill="none" xmlns="http://www.w3.org/2000/svg">
<g id="logos:whatsapp-icon" clip-path="url(#clip0_10_16)">
<path id="Vector" d="M0.725555 16.7965C0.724758 19.6532 1.47701 22.4425 2.9074 24.901L0.588758 33.3011L9.25238 31.0471C11.6486 32.3415 14.3334 33.0197 17.0618 33.0199H17.0689C26.0756 33.0199 33.4073 25.7477 33.4111 16.8093C33.4128 12.478 31.7144 8.40509 28.6287 5.34087C25.5434 2.27692 21.4402 0.588647 17.0683 0.58667C8.06053 0.58667 0.729407 7.85845 0.725688 16.7965" fill="url(#paint0_linear_10_16)"/>
<path id="Vector_2" d="M0.142109 16.7913C0.14118 19.7507 0.920391 22.6398 2.40178 25.1864L0 33.8876L8.97427 31.5528C11.447 32.8905 14.231 33.5958 17.0639 33.5969H17.0712C26.401 33.5969 33.996 26.0631 34 16.8047C34.0016 12.3178 32.2421 8.09846 29.0461 4.92447C25.8497 1.75087 21.5997 0.00184496 17.0712 0C7.73978 0 0.145828 7.53271 0.142109 16.7913ZM5.48662 24.7478L5.15153 24.22C3.74292 21.9976 2.99944 19.4294 3.0005 16.7923C3.00342 9.09685 9.3152 2.83597 17.0765 2.83597C20.8351 2.83755 24.3674 4.29138 27.0242 6.92915C29.6808 9.56718 31.1427 13.0739 31.1417 16.8036C31.1383 24.4991 24.8264 30.7608 17.0712 30.7608H17.0656C14.5404 30.7595 12.0639 30.0866 9.90409 28.815L9.39011 28.5126L4.06459 29.898L5.48662 24.7478Z" fill="url(#paint1_linear_10_16)"/>
<path id="Vector_3" d="M12.84 9.77134C12.5232 9.0725 12.1897 9.0584 11.8883 9.04614C11.6415 9.0356 11.3595 9.03639 11.0776 9.03639C10.7955 9.03639 10.3372 9.14169 9.94978 9.56141C9.56197 9.98154 8.46919 10.9968 8.46919 13.0617C8.46919 15.1267 9.98498 17.1223 10.1963 17.4026C10.4079 17.6824 13.1225 22.0555 17.4219 23.7378C20.9951 25.1359 21.7223 24.8579 22.4978 24.7877C23.2734 24.7179 25.0005 23.7728 25.3528 22.7927C25.7055 21.8127 25.7055 20.9728 25.5997 20.7972C25.494 20.6224 25.2119 20.5173 24.7889 20.3075C24.3658 20.0976 22.2862 19.0822 21.8985 18.9421C21.5107 18.8022 21.2288 18.7323 20.9467 19.1526C20.6646 19.5722 19.8545 20.5173 19.6076 20.7972C19.361 21.0778 19.1141 21.1127 18.6912 20.9028C18.268 20.6922 16.9057 20.2495 15.2895 18.8198C14.032 17.7073 13.1831 16.3335 12.9363 15.9132C12.6896 15.4936 12.9099 15.2662 13.122 15.057C13.3121 14.869 13.5451 14.5669 13.7569 14.3219C13.9678 14.0768 14.0381 13.9019 14.1792 13.622C14.3204 13.3419 14.2497 13.0968 14.1441 12.8868C14.0381 12.6769 13.2162 10.6012 12.84 9.77134Z" fill="white"/>
</g>
<defs>
<linearGradient id="paint0_linear_10_16" x1="1641.71" y1="3272.03" x2="1641.71" y2="0.58667" gradientUnits="userSpaceOnUse">
<stop stop-color="#1FAF38"/>
<stop offset="1" stop-color="#60D669"/>
</linearGradient>
<linearGradient id="paint1_linear_10_16" x1="1700" y1="3388.76" x2="1700" y2="0" gradientUnits="userSpaceOnUse">
<stop stop-color="#F9F9F9"/>
<stop offset="1" stop-color="white"/>
</linearGradient>
<clipPath id="clip0_10_16">
<rect width="34" height="34" fill="white"/>
</clipPath>
</defs>
</svg>
