<svg width="64" height="64" viewBox="0 0 64 64" fill="none" xmlns="http://www.w3.org/2000/svg">
<g id="ic:outline-date-range">
<path id="Vector" d="M18.6667 29.3333H24V34.6666H18.6667V29.3333ZM56 15.9999V53.3332C56 56.2666 53.6 58.6666 50.6667 58.6666H13.3333C11.9188 58.6666 10.5623 58.1047 9.5621 57.1045C8.5619 56.1043 8 54.7477 8 53.3332L8.02667 15.9999C8.02667 13.0666 10.3733 10.6666 13.3333 10.6666H16V5.33325H21.3333V10.6666H42.6667V5.33325H48V10.6666H50.6667C53.6 10.6666 56 13.0666 56 15.9999ZM13.3333 21.3333H50.6667V15.9999H13.3333V21.3333ZM50.6667 53.3332V26.6666H13.3333V53.3332H50.6667ZM40 34.6666H45.3333V29.3333H40V34.6666ZM29.3333 34.6666H34.6667V29.3333H29.3333V34.6666Z" fill="#A8FFF5"/>
</g>
</svg>
