<svg width="64" height="64" viewBox="0 0 64 64" fill="none" xmlns="http://www.w3.org/2000/svg">
<g id="ph:plant-bold">
<path id="Vector" d="M62.905 9.91252C62.8616 9.17944 62.5508 8.48774 62.0316 7.96846C61.5123 7.44919 60.8206 7.13841 60.0875 7.09502C46.7675 6.31002 36.0375 10.4375 31.3775 18.13C28.3425 23.13 28.2375 29.1725 31.0125 34.955C29.8257 36.4682 28.878 38.1545 28.2025 39.955L25.7775 37.53C27.575 33.3375 27.385 29.0025 25.1775 25.3575C21.6825 19.59 13.7225 16.5 3.88751 17.07C3.15442 17.1134 2.46272 17.4242 1.94345 17.9435C1.42417 18.4627 1.1134 19.1544 1.07001 19.8875C0.500007 29.7225 3.59001 37.6825 9.36251 41.1775C11.3203 42.3708 13.5698 42.9998 15.8625 42.995C17.8172 42.979 19.7482 42.5647 21.5375 41.7775L27 47.25V54C27 54.7957 27.3161 55.5587 27.8787 56.1213C28.4413 56.684 29.2044 57 30 57C30.7957 57 31.5587 56.684 32.1213 56.1213C32.6839 55.5587 33 54.7957 33 54V46.6275C32.9938 43.9458 33.8231 41.3288 35.3725 39.14C37.8807 40.3329 40.6178 40.9675 43.395 41C46.3839 41.0071 49.3167 40.1887 51.87 38.635C59.5625 33.9625 63.69 23.23 62.905 9.91252ZM12.47 36.045C9.17251 34.045 7.17501 29.18 7.01251 23.0125C13.18 23.175 18.0475 25.175 20.045 28.47C20.8262 29.7406 21.1466 31.2412 20.9525 32.72L18.12 29.8775C17.5564 29.3139 16.792 28.9973 15.995 28.9973C15.198 28.9973 14.4336 29.3139 13.87 29.8775C13.3064 30.4411 12.9898 31.2055 12.9898 32.0025C12.9898 32.7996 13.3064 33.5639 13.87 34.1275L16.705 36.9625C15.2302 37.1446 13.7372 36.8212 12.47 36.045ZM48.7625 33.5C46.0975 35.1125 43.0125 35.4175 39.81 34.44L49.1225 25.13C49.6861 24.5664 50.0027 23.8021 50.0027 23.005C50.0027 22.208 49.6861 21.4436 49.1225 20.88C48.5589 20.3164 47.7945 19.9998 46.9975 19.9998C46.2005 19.9998 45.4361 20.3164 44.8725 20.88L35.56 30.19C34.5925 27 34.8975 23.9025 36.5 21.25C39.6925 15.9775 47.25 12.9825 57 13C57.035 22.75 54.035 30.295 48.7625 33.5Z" fill="#A8FFF5"/>
</g>
</svg>
