<svg width="33" height="32" viewBox="0 0 33 32" fill="none" xmlns="http://www.w3.org/2000/svg">
<g clip-path="url(#clip0_10_12)">
<path fill-rule="evenodd" clip-rule="evenodd" d="M16.5 2.66675C16.8536 2.66675 17.1928 2.80722 17.4428 3.05727C17.6929 3.30732 17.8333 3.64646 17.8333 4.00008V5.28275L18.7053 4.82141C19.0179 4.6561 19.3834 4.62173 19.7213 4.72587C20.0593 4.83002 20.342 5.06415 20.5073 5.37675C20.6726 5.68935 20.707 6.05482 20.6029 6.39276C20.4987 6.7307 20.2646 7.01343 19.952 7.17875L17.8333 8.29875V10.8347C18.7867 11.0801 19.636 11.5814 20.3053 12.2627L22.5027 10.9947L22.4133 8.60008C22.4001 8.24664 22.5278 7.9024 22.7683 7.6431C23.0088 7.3838 23.3425 7.23068 23.696 7.21741C24.0494 7.20415 24.3937 7.33184 24.653 7.57239C24.9123 7.81293 25.0654 8.14664 25.0787 8.50008L25.1147 9.48675L26.2253 8.84541C26.377 8.75648 26.5448 8.69844 26.719 8.67462C26.8932 8.6508 27.0705 8.66167 27.2405 8.70662C27.4105 8.75156 27.5699 8.82969 27.7096 8.9365C27.8492 9.04331 27.9664 9.1767 28.0543 9.32898C28.1423 9.48126 28.1992 9.64943 28.2219 9.8238C28.2445 9.99817 28.2325 10.1753 28.1864 10.345C28.1403 10.5147 28.0612 10.6736 27.9534 10.8126C27.8457 10.9515 27.7115 11.0678 27.5587 11.1547L26.448 11.7947L27.284 12.3201C27.4323 12.4132 27.5608 12.5347 27.6622 12.6775C27.7635 12.8203 27.8358 12.9817 27.8748 13.1524C27.9138 13.3232 27.9188 13.4999 27.8895 13.6726C27.8602 13.8452 27.7971 14.0104 27.704 14.1587C27.6108 14.3071 27.4894 14.4356 27.3466 14.5369C27.2038 14.6383 27.0424 14.7105 26.8716 14.7495C26.7009 14.7885 26.5242 14.7935 26.3515 14.7642C26.1788 14.7349 26.0136 14.6719 25.8653 14.5787L23.836 13.3041L21.64 14.5707C21.8998 15.5055 21.8998 16.4934 21.64 17.4281L23.836 18.6961L25.8653 17.4214C26.1648 17.2333 26.5268 17.1718 26.8716 17.2506C27.2165 17.3294 27.5159 17.5419 27.704 17.8414C27.8921 18.1409 27.9536 18.5029 27.8748 18.8477C27.796 19.1925 27.5835 19.492 27.284 19.6801L26.4493 20.2041L27.5587 20.8454C27.7115 20.9323 27.8457 21.0486 27.9534 21.1876C28.0612 21.3266 28.1403 21.4855 28.1864 21.6552C28.2325 21.8249 28.2445 22.002 28.2219 22.1764C28.1992 22.3507 28.1423 22.5189 28.0543 22.6712C27.9664 22.8235 27.8492 22.9569 27.7096 23.0637C27.5699 23.1705 27.4105 23.2486 27.2405 23.2935C27.0705 23.3385 26.8932 23.3494 26.719 23.3255C26.5448 23.3017 26.377 23.2437 26.2253 23.1547L25.116 22.5147L25.0787 23.5001C25.0654 23.8535 24.9123 24.1872 24.653 24.4278C24.3937 24.6683 24.0494 24.796 23.696 24.7827C23.3425 24.7695 23.0088 24.6164 22.7683 24.3571C22.5278 24.0978 22.4001 23.7535 22.4133 23.4001L22.5027 21.0054L20.3053 19.7374C19.636 20.4174 18.7853 20.9201 17.8333 21.1654V23.7014L19.952 24.8214C20.2646 24.9867 20.4987 25.2695 20.6029 25.6074C20.707 25.9453 20.6726 26.3108 20.5073 26.6234C20.342 26.936 20.0593 27.1701 19.7213 27.2743C19.3834 27.3784 19.0179 27.3441 18.7053 27.1787L17.8333 26.7174V28.0001C17.8333 28.3537 17.6929 28.6928 17.4428 28.9429C17.1928 29.1929 16.8536 29.3334 16.5 29.3334C16.1464 29.3334 15.8072 29.1929 15.5572 28.9429C15.3071 28.6928 15.1667 28.3537 15.1667 28.0001V26.7174L14.2947 27.1787C14.1399 27.2606 13.9705 27.3112 13.7962 27.3276C13.6218 27.344 13.446 27.3259 13.2786 27.2743C13.1113 27.2227 12.9558 27.1387 12.8209 27.027C12.6861 26.9153 12.5745 26.7782 12.4927 26.6234C12.4108 26.4686 12.3602 26.2992 12.3438 26.1249C12.3274 25.9506 12.3456 25.7747 12.3971 25.6074C12.4487 25.4401 12.5327 25.2845 12.6444 25.1497C12.7561 25.0148 12.8932 24.9033 13.048 24.8214L15.1667 23.7014V21.1654C14.228 20.9228 13.3733 20.4286 12.6947 19.7361L10.4973 21.0054L10.5867 23.4001C10.5931 23.5751 10.5651 23.7497 10.5041 23.9138C10.4431 24.078 10.3504 24.2285 10.2312 24.3569C10.112 24.4852 9.96877 24.5888 9.80956 24.6618C9.65035 24.7347 9.47834 24.7756 9.30333 24.7821C9.12832 24.7886 8.95375 24.7605 8.78958 24.6995C8.62542 24.6385 8.47487 24.5458 8.34654 24.4266C8.21821 24.3075 8.11461 24.1642 8.04165 24.005C7.96869 23.8458 7.92781 23.6738 7.92133 23.4987L7.88533 22.5134L6.77466 23.1534C6.62288 23.2473 6.45379 23.3098 6.27741 23.3371C6.10104 23.3645 5.92097 23.3561 5.74788 23.3126C5.5748 23.269 5.41221 23.1912 5.26977 23.0836C5.12733 22.9761 5.00793 22.841 4.91865 22.6865C4.82936 22.532 4.77202 22.3611 4.75001 22.1839C4.728 22.0068 4.74178 21.8271 4.79053 21.6554C4.83927 21.4837 4.92199 21.3235 5.03378 21.1844C5.14557 21.0453 5.28416 20.93 5.44133 20.8454L6.55199 20.2041L5.71599 19.6787C5.42441 19.4871 5.21956 19.1888 5.14541 18.8478C5.07126 18.5069 5.13372 18.1505 5.31939 17.855C5.50506 17.5596 5.79913 17.3487 6.13851 17.2677C6.47789 17.1866 6.83552 17.2418 7.13466 17.4214L9.16399 18.6961L11.36 17.4281C11.1006 16.4937 11.1006 15.5064 11.36 14.5721L9.16399 13.3054L7.13466 14.5787C6.83552 14.7584 6.47789 14.8136 6.13851 14.7325C5.79913 14.6514 5.50506 14.4406 5.31939 14.1451C5.13372 13.8497 5.07126 13.4933 5.14541 13.1523C5.21956 12.8114 5.42441 12.5131 5.71599 12.3214L6.55199 11.7961L5.44133 11.1561C5.13491 10.9793 4.91129 10.688 4.81965 10.3463C4.728 10.0046 4.77585 9.64049 4.95266 9.33408C5.12947 9.02767 5.42076 8.80404 5.76245 8.7124C6.10415 8.62076 6.46825 8.6686 6.77466 8.84541L7.88533 9.48675L7.92133 8.50008C7.93459 8.14664 8.08771 7.81293 8.34701 7.57239C8.4754 7.45328 8.626 7.36063 8.7902 7.29972C8.9544 7.23882 9.12899 7.21085 9.30399 7.21741C9.479 7.22398 9.651 7.26495 9.81018 7.33799C9.96935 7.41103 10.1126 7.51471 10.2317 7.6431C10.3508 7.77149 10.4434 7.92209 10.5044 8.08629C10.5653 8.25048 10.5932 8.42507 10.5867 8.60008L10.4973 10.9947L12.6947 12.2641C13.3733 11.5716 14.228 11.0774 15.1667 10.8347V8.29875L13.048 7.17875C12.7354 7.01343 12.5013 6.7307 12.3971 6.39276C12.293 6.05482 12.3273 5.68935 12.4927 5.37675C12.658 5.06415 12.9407 4.83002 13.2786 4.72587C13.6166 4.62173 13.9821 4.6561 14.2947 4.82141L15.1667 5.28275V4.00008C15.1667 3.64646 15.3071 3.30732 15.5572 3.05727C15.8072 2.80722 16.1464 2.66675 16.5 2.66675ZM16.5 18.6667C17.2072 18.6667 17.8855 18.3858 18.3856 17.8857C18.8857 17.3856 19.1667 16.7073 19.1667 16.0001C19.1667 15.2928 18.8857 14.6146 18.3856 14.1145C17.8855 13.6144 17.2072 13.3334 16.5 13.3334C15.7928 13.3334 15.1145 13.6144 14.6144 14.1145C14.1143 14.6146 13.8333 15.2928 13.8333 16.0001C13.8333 16.7073 14.1143 17.3856 14.6144 17.8857C15.1145 18.3858 15.7928 18.6667 16.5 18.6667Z" fill="white"/>
</g>
<defs>
<clipPath id="clip0_10_12">
<rect width="32" height="32" fill="white" transform="translate(0.5)"/>
</clipPath>
</defs>
</svg>
