<svg width="39" height="38" viewBox="0 0 39 38" fill="none" xmlns="http://www.w3.org/2000/svg">
<g id="bx:support">
<path id="Vector" d="M19.5 3.375C10.8844 3.375 3.875 10.3844 3.875 19V25.4734C3.875 27.0734 5.27656 28.375 7 28.375H8.5625C8.9769 28.375 9.37433 28.2104 9.66735 27.9174C9.96038 27.6243 10.125 27.2269 10.125 26.8125V18.7766C10.125 18.3622 9.96038 17.9647 9.66735 17.6717C9.37433 17.3787 8.9769 17.2141 8.5625 17.2141H7.14375C8.0125 11.1672 13.2156 6.5 19.5 6.5C25.7844 6.5 30.9875 11.1672 31.8563 17.2141H30.4375C30.0231 17.2141 29.6257 17.3787 29.3326 17.6717C29.0396 17.9647 28.875 18.3622 28.875 18.7766V28.375C28.875 30.0984 27.4734 31.5 25.75 31.5H22.625V29.9375H16.375V34.625H25.75C29.1969 34.625 32 31.8219 32 28.375C33.7234 28.375 35.125 27.0734 35.125 25.4734V19C35.125 10.3844 28.1156 3.375 19.5 3.375Z" fill="#A8FFF5"/>
</g>
</svg>
