<svg width="64" height="64" viewBox="0 0 64 64" fill="none" xmlns="http://www.w3.org/2000/svg">
<g id="tabler:shovel">
<path id="Vector" d="M45.3333 10.6667L53.3333 18.6667M49.3333 14.6667L28 36.0001M22.0693 30.0907L33.9093 41.9307C34.149 42.1704 34.3392 42.455 34.4689 42.7682C34.5987 43.0814 34.6654 43.4171 34.6654 43.7561C34.6654 44.0951 34.5987 44.4308 34.4689 44.744C34.3392 45.0571 34.149 45.3417 33.9093 45.5814L26.6987 52.7921C24.6402 54.8275 21.8598 55.9654 18.965 55.9571C16.0701 55.9488 13.2963 54.7951 11.2495 52.7479C9.20271 50.7008 8.04943 47.9267 8.04165 45.0319C8.03387 42.1371 9.17224 39.3569 11.208 37.2988L18.4187 30.0907C18.6584 29.8506 18.9431 29.6601 19.2566 29.5302C19.57 29.4002 19.906 29.3333 20.2453 29.3333C20.5846 29.3333 20.9206 29.4002 21.2341 29.5302C21.5475 29.6601 21.8322 29.8506 22.072 30.0907H22.0693Z" stroke="#A8FFF5" stroke-width="7" stroke-linecap="round" stroke-linejoin="round"/>
</g>
</svg>
