<svg width="64" height="64" viewBox="0 0 64 64" fill="none" xmlns="http://www.w3.org/2000/svg">
<rect width="64" height="64" fill="#474747"/>
<g id="&#208;&#159;&#208;&#152;&#208;&#165;&#208;&#162;&#208;&#144; &#208;&#157;&#208;&#158;&#208;&#160;&#208;&#148;&#208;&#156;&#208;&#144;&#208;&#157;&#208;&#144;" clip-path="url(#clip0_0_1)">
<rect width="1920" height="5231" transform="translate(-388 -1120)" fill="white"/>
<g id="Group 6">
<g id="Group 2">
<g id="Group 1">
<circle id="Ellipse 1" cx="32" cy="32" r="54" fill="#007E70" stroke="#A8FFF5" stroke-width="8"/>
<g id="typcn:tree">
<path id="Vector" d="M55.416 46.3332L48.216 37.3332H50.6667C51.1546 37.3339 51.6333 37.2006 52.0507 36.9477C52.468 36.6949 52.8079 36.3323 53.0332 35.8995C53.2585 35.4667 53.3607 34.9804 53.3285 34.4935C53.2963 34.0066 53.131 33.5379 52.8507 33.1386L34.184 6.47191C33.778 5.89277 33.1588 5.4984 32.4624 5.3754C31.7659 5.25241 31.0491 5.41084 30.4693 5.81591C30.2401 5.98716 30.0409 6.19533 29.88 6.43191C29.8133 6.47191 11.1466 33.1386 11.1466 33.1386C10.8671 33.5383 10.7027 34.0071 10.6711 34.4939C10.6395 34.9806 10.742 35.4667 10.9675 35.8993C11.193 36.3318 11.5328 36.6942 11.9499 36.947C12.367 37.1999 12.8455 37.3335 13.3333 37.3332H15.784L8.58398 46.3332C7.94398 47.1359 7.81865 48.2319 8.26132 49.1572C8.70665 50.0772 9.64265 50.6666 10.6666 50.6666H29.3333V58.6666C29.3333 59.3738 29.6143 60.0521 30.1144 60.5522C30.6145 61.0523 31.2927 61.3332 32 61.3332C32.7072 61.3332 33.3855 61.0523 33.8856 60.5522C34.3857 60.0521 34.6666 59.3738 34.6666 58.6666V50.6666H53.3333C53.8354 50.6657 54.327 50.5233 54.7518 50.2557C55.1765 49.988 55.5172 49.6061 55.7347 49.1536C55.9521 48.7011 56.0376 48.1964 55.9812 47.6975C55.9249 47.1987 55.729 46.7258 55.416 46.3332ZM34.6666 45.3332V31.9999C34.6666 31.2927 34.3857 30.6144 33.8856 30.1143C33.3855 29.6142 32.7072 29.3332 32 29.3332C31.2927 29.3332 30.6145 29.6142 30.1144 30.1143C29.6143 30.6144 29.3333 31.2927 29.3333 31.9999V45.3332H16.216L23.416 36.3332C24.056 35.5306 24.1813 34.4346 23.7387 33.5092C23.5196 33.0574 23.1779 32.6763 22.7526 32.4094C22.3272 32.1425 21.8354 32.0006 21.3333 31.9999H18.4533L32 12.6506L45.5466 31.9999H42.6666C42.1648 32.0013 41.6736 32.144 41.2492 32.4119C40.8248 32.6797 40.4845 33.0617 40.2674 33.5141C40.0502 33.9665 39.965 34.471 40.0215 34.9696C40.0779 35.4682 40.2738 35.9409 40.5867 36.3332L47.7867 45.3332H34.6666Z" fill="#A8FFF5"/>
</g>
</g>
</g>
</g>
</g>
<defs>
<clipPath id="clip0_0_1">
<rect width="1920" height="5231" fill="white" transform="translate(-388 -1120)"/>
</clipPath>
</defs>
</svg>
